<?xml version="1.0" standalone="no"?>
<!DOCTYPE svg PUBLIC "-//W3C//DTD SVG 20010904//EN"
 "http://www.w3.org/TR/2001/REC-SVG-20010904/DTD/svg10.dtd">
<svg version="1.0" xmlns="http://www.w3.org/2000/svg"
 width="500.000000pt" height="500.000000pt" viewBox="0 0 500.000000 500.000000"
 preserveAspectRatio="xMidYMid meet">
<metadata>
Created by potrace 1.14, written by Peter Selinger 2001-2017
</metadata>
<g transform="translate(0.000000,500.000000) scale(0.100000,-0.100000)"
fill="#000000" stroke="none">
<path d="M2338 4366 c-1 -2 -32 -7 -68 -10 -36 -4 -83 -11 -105 -16 -38 -8
-56 -12 -122 -26 -134 -26 -434 -159 -568 -249 -154 -105 -330 -264 -421 -380
-21 -27 -42 -52 -45 -55 -13 -10 -125 -187 -149 -235 -14 -28 -28 -51 -32 -53
-5 -2 -8 -8 -8 -13 0 -4 -12 -34 -26 -66 -14 -32 -31 -71 -39 -88 -27 -61 -90
-289 -100 -361 -3 -21 -8 -61 -12 -89 -16 -118 -8 -434 14 -540 3 -16 7 -39 8
-51 9 -73 111 -382 143 -432 6 -9 17 -1 38 30 28 41 120 172 136 193 5 6 58
75 118 155 61 80 116 152 123 160 6 8 27 35 46 59 l35 44 -60 -7 c-152 -17
-191 -18 -198 -7 -21 33 52 134 137 188 39 25 77 31 211 37 89 4 82 -1 206
146 30 36 60 70 65 76 6 6 41 46 80 90 257 291 520 536 691 643 110 70 179 93
284 96 152 3 225 -31 214 -101 -2 -11 -38 -92 -80 -180 -151 -314 -184 -384
-269 -580 -48 -110 -95 -217 -105 -239 -147 -336 -320 -784 -371 -965 -23 -82
-30 -95 -51 -101 -55 -14 -179 55 -226 127 -15 23 -19 41 -15 74 6 50 55 168
115 278 23 42 60 113 81 156 107 217 96 246 -103 282 -39 7 -324 12 -355 6
-29 -5 -198 -244 -299 -422 -21 -36 -75 -142 -121 -235 -46 -94 -90 -177 -100
-185 -9 -7 -36 -18 -60 -24 l-44 -12 30 -44 c71 -107 99 -140 214 -255 55 -56
129 -124 165 -152 133 -104 319 -212 448 -262 26 -10 56 -22 67 -26 11 -5 23
-9 28 -10 4 -2 9 -4 12 -5 3 -1 10 -4 15 -5 6 -1 11 -3 13 -5 1 -1 9 -3 17 -5
8 -2 49 -12 90 -24 255 -70 604 -78 855 -21 28 7 61 14 75 16 39 8 230 72 277
94 24 11 47 20 52 20 5 0 11 3 13 8 2 4 35 23 73 42 62 31 242 143 255 159 3
4 25 22 50 41 52 39 220 206 267 265 142 177 251 372 313 558 17 51 34 99 37
107 3 8 7 20 8 25 2 6 8 37 16 70 7 33 14 65 15 70 36 158 40 485 8 669 -51
301 -191 612 -379 846 -29 36 -62 75 -72 87 l-20 23 -85 -123 c-176 -253 -310
-461 -427 -662 -45 -77 -86 -147 -91 -155 -43 -70 -131 -254 -128 -268 6 -28
44 -16 124 37 62 42 138 76 194 88 40 8 140 4 161 -7 71 -38 103 -160 75 -285
-3 -16 -8 -39 -10 -50 -7 -36 -53 -149 -91 -225 -119 -236 -293 -423 -481
-518 -130 -66 -252 -82 -374 -50 -127 34 -124 34 -156 -8 -68 -89 -118 -115
-218 -116 -66 -1 -93 8 -99 31 -3 12 23 67 65 142 38 68 82 147 97 174 16 28
41 73 56 100 16 28 82 147 148 265 66 118 148 265 182 325 35 61 76 135 93
165 16 30 114 206 217 390 103 184 198 353 210 375 236 424 315 567 315 571 0
8 -31 37 -50 49 -10 5 -44 28 -76 49 -169 112 -448 231 -612 261 -14 2 -50 9
-81 16 -30 6 -71 13 -90 15 -47 6 -398 14 -403 10z m1545 -2485 c116 -45 74
-202 -71 -267 -65 -29 -122 -30 -179 -3 -35 17 -44 27 -49 56 -14 74 40 157
131 202 43 22 127 27 168 12z"/>
<path d="M2325 3176 c-96 -42 -365 -297 -545 -516 -24 -30 -53 -63 -64 -73
-11 -9 -16 -20 -13 -23 4 -4 77 -8 164 -10 149 -3 161 -2 208 21 63 30 99 64
168 157 69 93 106 163 146 274 58 160 38 215 -64 170z"/>
<path d="M3296 2445 c-79 -28 -167 -103 -346 -294 -34 -37 -126 -170 -153
-222 -34 -66 -32 -96 13 -157 51 -70 141 -91 227 -52 135 61 326 350 373 564
33 151 -2 201 -114 161z"/>
</g>
</svg>
